<svg width="19" height="18" viewBox="0 0 19 18" fill="none" xmlns="http://www.w3.org/2000/svg">
<path d="M3.9594 0.984375H2.18752C1.54065 0.984375 0.978149 1.51875 0.978149 2.19375V3.96563C0.978149 4.6125 1.51252 5.175 2.18752 5.175H3.9594C4.60627 5.175 5.16877 4.64063 5.16877 3.96563V2.16562C5.14065 1.51875 4.60627 0.984375 3.9594 0.984375ZM3.87502 3.88125H2.2719V2.25H3.87502V3.88125Z" fill="#DEE4EE"/>
<path d="M7.72817 3.71245H17.375C17.7125 3.71245 18.0219 3.4312 18.0219 3.06558C18.0219 2.69995 17.7407 2.4187 17.375 2.4187H7.72817C7.39067 2.4187 7.0813 2.69995 7.0813 3.06558C7.0813 3.4312 7.39067 3.71245 7.72817 3.71245Z" fill="#DEE4EE"/>
<path d="M3.9594 6.75H2.18752C1.54065 6.75 0.978149 7.28437 0.978149 7.95937V9.73125C0.978149 10.3781 1.51252 10.9406 2.18752 10.9406H3.9594C4.60627 10.9406 5.16877 10.4062 5.16877 9.73125V7.95937C5.14065 7.28437 4.60627 6.75 3.9594 6.75ZM3.87502 9.64687H2.2719V8.01562H3.87502V9.64687Z" fill="#DEE4EE"/>
<path d="M17.375 8.2124H7.72817C7.39067 8.2124 7.0813 8.49365 7.0813 8.85928C7.0813 9.2249 7.36255 9.47803 7.72817 9.47803H17.375C17.7125 9.47803 18.0219 9.19678 18.0219 8.85928C18.0219 8.52178 17.7125 8.2124 17.375 8.2124Z" fill="#DEE4EE"/>
<path d="M3.9594 12.853H2.18752C1.54065 12.853 0.978149 13.3874 0.978149 14.0624V15.8343C0.978149 16.4812 1.51252 17.0437 2.18752 17.0437H3.9594C4.60627 17.0437 5.16877 16.5093 5.16877 15.8343V14.0624C5.14065 13.3874 4.60627 12.853 3.9594 12.853ZM3.87502 15.7499H2.2719V14.1187H3.87502V15.7499Z" fill="#DEE4EE"/>
<path d="M17.375 14.2876H7.72817C7.39067 14.2876 7.0813 14.5688 7.0813 14.9345C7.0813 15.3001 7.36255 15.5813 7.72817 15.5813H17.375C17.7125 15.5813 18.0219 15.3001 18.0219 14.9345C18.0219 14.5688 17.7125 14.2876 17.375 14.2876Z" fill="#DEE4EE"/>
</svg>
