<svg width="16" height="18" viewBox="0 0 16 18" fill="none" xmlns="http://www.w3.org/2000/svg">
<path d="M8.00001 7.79053C10.0813 7.79053 11.7688 6.15928 11.7688 4.13428C11.7688 2.10928 10.0813 0.478027 8.00001 0.478027C5.91876 0.478027 4.23126 2.10928 4.23126 4.13428C4.23126 6.15928 5.91876 7.79053 8.00001 7.79053ZM8.00001 1.77178C9.37814 1.77178 10.5031 2.84053 10.5031 4.1624C10.5031 5.48428 9.37814 6.55303 8.00001 6.55303C6.62189 6.55303 5.49689 5.48428 5.49689 4.1624C5.49689 2.84053 6.62189 1.77178 8.00001 1.77178Z" fill="#DEE4EE"/>
<path d="M9.82814 9.05615H6.17189C3.16251 9.05615 0.715637 11.5312 0.715637 14.5405V16.8749C0.715637 17.2124 0.996887 17.5218 1.36251 17.5218C1.72814 17.5218 2.00939 17.2405 2.00939 16.8749V14.5405C2.00939 12.2343 3.89376 10.3218 6.22814 10.3218H9.85626C12.1625 10.3218 14.075 12.2062 14.075 14.5405V16.8749C14.075 17.2124 14.3563 17.5218 14.7219 17.5218C15.0875 17.5218 15.3688 17.2405 15.3688 16.8749V14.5405C15.2844 11.5312 12.8375 9.05615 9.82814 9.05615Z" fill="#DEE4EE"/>
</svg>
